:FULLY-SPECIFIED
:FORCE-ALL-JOINTS-BE-3DOF
:DEGREES
238
root 6.03847 15.7387 -25.7039 9.31082 26.623 -3.46544
lfemur -27.5867 22.1582 -5.95874
ltibia 38.9745 -0 0
lfoot -20.9013 -2.41783 0.251623
ltoes 41.0285 -0 0
rfemur -15.6342 -2.8716 -0.599157
rtibia 45.4113 -0 0
rfoot -25.0804 -20.4455 -1.37249
rtoes 55.6364 -0 0
lowerback -0.309187 -2.81011 1.08159
upperback -0.988031 -3.73427 1.4482
thorax -0.836063 -1.87077 0.878109
lowerneck -10.8958 -2.82592 1.57241
upperneck 2.45856 -3.9919 0.282192
head 2.67272 -1.94721 -0.402712
lclavicle -2.20651e-014 6.36111e-014 0
lhumerus -56.2807 -35.9718 121.155
lradius 60.7652 -0 0
lwrist 21.5602 0 0
lhand 8.27625 15.4207 0.107613
lfingers 7.12502 -0 0
lthumb 33.4984 42.3943 0.154852
rclavicle -2.20651e-014 6.36111e-014 0
rhumerus -31.9584 -10.0554 -49.7193
rradius 65.1343 -0 0
rwrist 22.2507 0 0
rhand -22.6601 -21.4066 0.530061
rfingers 7.12502 -0 0
rthumb 3.80733 -51.5563 0.38244
239
root 6.1081 15.7674 -25.7041 9.29345 28.2527 -3.64218
lfemur -28.9571 22.7113 -6.92802
ltibia 39.8124 -0 0
lfoot -20.6102 -2.15465 0.234229
ltoes 41.1026 -0 0
rfemur -14.7956 -1.92586 -0.363701
rtibia 45.1988 -0 0
rfoot -24.7474 -22.4846 -1.34873
rtoes 55.1636 -0 0
lowerback -0.308467 -2.79094 1.11818
upperback -1.04251 -3.70421 1.70538
thorax -0.876149 -1.85538 1.12282
lowerneck -10.8379 -3.18719 1.32145
upperneck 2.44059 -4.43865 0.294769
head 2.65583 -2.17208 -0.37957
lclavicle -2.20651e-014 6.36111e-014 0
lhumerus -56.0386 -35.6206 121.271
lradius 60.9423 -0 0
lwrist 21.1251 0 0
lhand 7.8497 15.1012 0.103
lfingers 7.12502 -0 0
lthumb 33.0917 42.1502 0.143556
rclavicle -2.20651e-014 6.36111e-014 0
rhumerus -32.9915 -10.4692 -51.0955
rradius 63.6855 -0 0
rwrist 23.4745 0 0
rhand -21.8602 -20.3915 0.538218
rfingers 7.12502 -0 0
rthumb 4.57388 -50.492 0.409214
240
root 6.17773 15.796 -25.7044 9.26876 29.8728 -3.79959
lfemur -30.2856 23.2041 -7.89483
ltibia 40.6255 -0 0
lfoot -20.3223 -1.92651 0.214527
ltoes 41.1787 -0 0
rfemur -14.0198 -1.02103 -0.108408
rtibia 45.015 -0 0
rfoot -24.3921 -24.4287 -1.30496
rtoes 54.6587 -0 0
lowerback -0.30078 -2.77538 1.14847
upperback -1.09079 -3.67881 1.94843
thorax -0.914221 -1.84219 1.35698
lowerneck -10.7744 -3.54466 1.07276
upperneck 2.42261 -4.88126 0.313472
head 2.6391 -2.39475 -0.354336
lclavicle -2.20651e-014 6.36111e-014 0
lhumerus -55.7944 -35.287 121.369
lradius 61.1114 -0 0
lwrist 20.7043 0 0
lhand 7.45226 14.7961 0.0968963
lfingers 7.12502 -0 0
lthumb 32.7126 41.9133 0.130827
rclavicle -2.20651e-014 6.36111e-014 0
rhumerus -34.0011 -10.8598 -52.4651
rradius 62.2867 -0 0
rwrist 24.6489 0 0
rhand -21.0892 -19.3842 0.530955
rfingers 7.12502 -0 0
rthumb 5.31284 -49.4359 0.420393
241
root 6.24736 15.8247 -25.7046 9.23773 31.4775 -3.93519
lfemur -31.5608 23.6342 -8.85161
ltibia 41.4101 -0 0
lfoot -20.0395 -1.73623 0.192883
ltoes 41.256 -0 0
rfemur -13.3159 -0.163743 0.164641
rtibia 44.8637 -0 0
rfoot -24.0142 -26.262 -1.24043
rtoes 54.1208 -0 0
lowerback -0.285225 -2.76389 1.17189
upperback -1.13217 -3.65879 2.17558
thorax -0.950108 -1.83152 1.57915
lowerneck -10.7051 -3.89658 0.827485
upperneck 2.40452 -5.31757 0.338511
head 2.62253 -2.61412 -0.326997
lclavicle -2.20651e-014 6.36111e-014 0
lhumerus -55.5489 -34.9734 121.448
lradius 61.2716 -0 0
lwrist 20.3008 0 0
lhand 7.08619 14.5066 0.0894463
lfingers 7.12502 -0 0
lthumb 32.3632 41.6851 0.11693
rclavicle -2.20651e-014 6.36111e-014 0
rhumerus -34.9821 -11.2244 -53.8228
rradius 60.9442 -0 0
rwrist 25.7665 0 0
rhand -20.3569 -18.3903 0.508876
rfingers 7.12502 -0 0
rthumb 6.01487 -48.3945 0.416273
242
root 6.317 15.8533 -25.7049 9.20157 33.0608 -4.04631
lfemur -32.7714 23.9998 -9.79053
ltibia 42.1628 -0 0
lfoot -19.7636 -1.58661 0.169692
ltoes 41.3332 -0 0
rfemur -12.6933 0.639552 0.453091
rtibia 44.7487 -0 0
rfoot -23.6133 -27.9686 -1.15465
rtoes 53.549 -0 0
lowerback -0.260902 -2.75694 1.18786
upperback -1.16594 -3.64486 2.38508
thorax -0.983637 -1.82371 1.78788
lowerneck -10.6299 -4.24116 0.586764
upperneck 2.38625 -5.74541 0.370091
head 2.60613 -2.82911 -0.297538
lclavicle -2.20651e-014 6.36111e-014 0
lhumerus -55.3033 -34.6823 121.506
lradius 61.4219 -0 0
lwrist 19.9178 0 0
lhand 6.75374 14.2341 0.0808071
lfingers 7.12502 -0 0
lthumb 32.0457 41.4668 0.102154
rclavicle -2.20651e-014 6.36111e-014 0
rhumerus -35.9294 -11.5597 -55.1631
rradius 59.6643 -0 0
rwrist 26.8202 0 0
rhand -19.673 -17.4155 0.473038
rfingers 7.12502 -0 0
rthumb 6.67067 -47.3745 0.397616
243
root 6.38663 15.882 -25.7051 9.16168 34.6168 -4.13004
lfemur -33.9056 24.2999 -10.7036
ltibia 42.8799 -0 0
lfoot -19.4964 -1.48046 0.145377
ltoes 41.4095 -0 0
rfemur -12.1616 1.38259 0.754383
rtibia 44.6739 -0 0
rfoot -23.189 -29.5325 -1.04751
rtoes 52.9426 -0 0
lowerback -0.226906 -2.75499 1.1958
upperback -1.19137 -3.6377 2.57515
thorax -1.01464 -1.8191 1.98171
lowerneck -10.5486 -4.57664 0.351744
upperneck 2.36771 -6.1626 0.408421
head 2.58994 -3.03863 -0.265947
lclavicle -2.20651e-014 6.36111e-014 0
lhumerus -55.0584 -34.4163 121.541
lradius 61.5614 -0 0
lwrist 19.5583 0 0
lhand 6.45717 13.9798 0.0711445
lfingers 7.12502 -0 0
lthumb 31.7624 41.2598 0.0868022
rclavicle -2.20651e-014 6.36111e-014 0
rhumerus -36.8383 -11.8619 -56.4807
rradius 58.4532 -0 0
rwrist 27.8027 0 0
rhand -19.0471 -16.4656 0.424915
rfingers 7.12502 -0 0
rthumb 7.27094 -46.3823 0.365616
244
root 6.45626 15.9107 -25.7053 9.11973 36.1396 -4.18325
lfemur -34.9517 24.5335 -11.583
ltibia 43.5578 -0 0
lfoot -19.2397 -1.42059 0.120371
ltoes 41.4838 -0 0
rfemur -11.7305 2.05929 1.06584
rtibia 44.6432 -0 0
rfoot -22.7405 -30.9378 -0.919226
rtoes 52.3005 -0 0
lowerback -0.182333 -2.75851 1.19514
upperback -1.20777 -3.63805 2.74404
thorax -1.04294 -1.81803 2.1592
lowerneck -10.461 -4.90125 0.123582
upperneck 2.34883 -6.56698 0.453707
head 2.57396 -3.2416 -0.23221
lclavicle -2.20651e-014 6.36111e-014 0
lhumerus -54.8153 -34.1777 121.552
lradius 61.6891 -0 0
lwrist 19.2254 0 0
lhand 6.19874 13.745 0.0606248
lfingers 7.12502 -0 0
lthumb 31.5154 41.0654 0.0711871
rclavicle -2.20651e-014 6.36111e-014 0
rhumerus -37.7038 -12.1272 -57.7701
rradius 57.3171 -0 0
rwrist 28.7069 0 0
rhand -18.4889 -15.5461 0.366354
rfingers 7.12502 -0 0
rthumb 7.80644 -45.4245 0.321851
245
root 6.52589 15.9393 -25.7056 9.07762 37.6233 -4.20255
lfemur -35.8981 24.7001 -12.4207
ltibia 44.1929 -0 0
lfoot -18.9953 -1.40979 0.0951161
ltoes 41.5551 -0 0
rfemur -11.41 2.66373 1.38478
rtibia 44.6604 -0 0
rfoot -22.2669 -32.1684 -0.770441
rtoes 51.6221 -0 0
lowerback -0.126275 -2.76794 1.1853
upperback -1.21442 -3.64659 2.88996
thorax -1.06836 -1.82082 2.31891
lowerneck -10.3669 -5.21323 -0.096557
upperneck 2.32952 -6.95637 0.506156
head 2.55821 -3.43692 -0.196318
lclavicle -2.20651e-014 6.36111e-014 0
lhumerus -54.5747 -33.9689 121.536
lradius 61.8041 -0 0
lwrist 18.922 0 0
lhand 5.98068 13.531 0.049407
lfingers 7.12502 -0 0
lthumb 31.3068 40.8849 0.0556264
rclavicle -2.20651e-014 6.36111e-014 0
rhumerus -38.5215 -12.351 -59.0261
rradius 56.2623 -0 0
rwrist 29.5255 0 0
rhand -18.0078 -14.6625 0.29952
rfingers 7.12502 -0 0
rthumb 8.26798 -44.5076 0.268217
246
root 6.59552 15.968 -25.7058 9.03749 39.0619 -4.18431
lfemur -36.733 24.7997 -13.2091
ltibia 44.7816 -0 0
lfoot -18.765 -1.45085 0.0700472
ltoes 41.6224 -0 0
rfemur -11.2101 3.19016 1.7086
rtibia 44.7294 -0 0
rfoot -21.7672 -33.2084 -0.602244
rtoes 50.9063 -0 0
lowerback -0.0578194 -2.78373 1.16567
upperback -1.21059 -3.66403 3.01115
thorax -1.09075 -1.82781 2.45937
lowerneck -10.2663 -5.51082 -0.307494
upperneck 2.30973 -7.3286 0.565973
head 2.54273 -3.62352 -0.158259
lclavicle -2.20651e-014 6.36111e-014 0
lhumerus -54.3377 -33.7925 121.492
lradius 61.9053 -0 0
lwrist 18.6514 0 0
lhand 5.80525 13.3391 0.0376346
lfingers 7.12502 -0 0
lthumb 31.139 40.7198 0.040434
rclavicle -2.20651e-014 6.36111e-014 0
rhumerus -39.2868 -12.5286 -60.2434
rradius 55.295 -0 0
rwrist 30.2513 0 0
rhand -17.6134 -13.8203 0.22683
rfingers 7.12502 -0 0
rthumb 8.64644 -43.6379 0.206865
